<svg width="189" height="113" viewBox="0 0 189 113" fill="none" xmlns="http://www.w3.org/2000/svg">
<g clip-path="url(#clip0_1383_1608)">
<path d="M31.5931 107.564C31.4423 107.57 31.2929 107.531 31.1654 107.45C31.0378 107.369 30.9381 107.251 30.8798 107.112C30.8216 106.973 30.8076 106.819 30.8397 106.671C30.8718 106.524 30.9485 106.39 31.0594 106.287L31.1098 106.086C31.1032 106.07 31.0965 106.054 31.0898 106.038C30.9378 105.679 30.6832 105.373 30.3578 105.159C30.0325 104.944 29.6509 104.83 29.2611 104.832C28.8714 104.833 28.4907 104.95 28.1669 105.167C27.8432 105.384 27.5908 105.692 27.4415 106.052C26.8448 107.489 26.0851 108.928 25.8981 110.448C25.8157 111.12 25.8505 111.8 26.0008 112.46C24.5993 109.403 23.8716 106.08 23.8669 102.717C23.8666 101.873 23.9135 101.03 24.0074 100.192C24.0849 99.504 24.1925 98.8213 24.3302 98.1436C25.0813 94.4661 26.6941 91.0193 29.036 88.0862C30.1695 87.4678 31.0862 86.5167 31.6625 85.3612C31.8713 84.9459 32.0188 84.5025 32.1006 84.0449C31.9727 84.0616 31.6185 82.1143 31.7149 81.9948C31.5367 81.7244 31.2178 81.59 31.0232 81.3262C30.0553 80.0139 28.7218 80.243 28.0257 82.0263C26.5386 82.7768 26.5242 84.0216 27.4367 85.2187C28.0172 85.9803 28.097 87.0109 28.6063 87.8263C28.5539 87.8934 28.4994 87.9584 28.447 88.0255C27.4891 89.2573 26.6541 90.58 25.9542 91.9746C26.1244 90.4122 25.9213 88.8317 25.3615 87.3631C24.7941 85.9944 23.7307 84.8417 22.7942 83.6585C21.6694 82.2372 19.3628 82.8575 19.1646 84.6591C19.1627 84.6766 19.1608 84.694 19.159 84.7114C19.2981 84.7899 19.4342 84.8732 19.5675 84.9613C19.7348 85.0731 19.8645 85.2329 19.9395 85.4197C20.0145 85.6064 20.0314 85.8115 19.9878 86.008C19.9443 86.2046 19.8424 86.3833 19.6955 86.521C19.5486 86.6586 19.3636 86.7486 19.1647 86.7793L19.1443 86.7824C19.1939 87.2837 19.2815 87.7806 19.4063 88.2686C18.205 92.9146 20.7986 94.6068 24.5021 94.6828C24.5838 94.7248 24.6635 94.7667 24.7452 94.8065C24.042 96.7993 23.6009 98.8752 23.433 100.982C23.338 102.225 23.3436 103.473 23.4498 104.715L23.4435 104.671C23.1752 103.29 22.4385 102.044 21.3578 101.143C19.7528 99.8247 17.4852 99.3391 15.7536 98.2793C15.5696 98.1612 15.3556 98.0981 15.1369 98.0976C14.9183 98.0971 14.704 98.1591 14.5194 98.2763C14.3348 98.3936 14.1876 98.5612 14.0951 98.7594C14.0026 98.9575 13.9688 99.178 13.9975 99.3948C13.9998 99.4102 14.0022 99.4257 14.0046 99.4411C14.2627 99.5462 14.514 99.6673 14.7571 99.8037C14.8962 99.8822 15.0323 99.9655 15.1656 100.054C15.3329 100.165 15.4626 100.325 15.5376 100.512C15.6126 100.699 15.6294 100.904 15.5859 101.1C15.5424 101.297 15.4405 101.476 15.2936 101.613C15.1467 101.751 14.9617 101.841 14.7628 101.872L14.7424 101.875C14.7277 101.877 14.7151 101.879 14.7005 101.881C15.1415 102.934 15.7605 103.903 16.5304 104.746C17.2816 108.802 20.508 109.187 23.9592 108.006H23.9613C24.3399 109.651 24.8886 111.253 25.5984 112.785H31.4466C31.4676 112.72 31.4864 112.653 31.5053 112.588C30.964 112.622 30.4205 112.59 29.8871 112.492C30.321 111.959 30.7549 111.423 31.1888 110.89C31.1985 110.88 31.2076 110.87 31.216 110.859C31.4361 110.586 31.6583 110.316 31.8784 110.043L31.8785 110.043C31.8903 109.208 31.7942 108.374 31.5931 107.564Z" fill="#F2F2F2"/>
<path d="M153.743 107.564C153.894 107.57 154.044 107.531 154.171 107.45C154.299 107.369 154.398 107.251 154.457 107.112C154.515 106.973 154.529 106.819 154.497 106.671C154.465 106.524 154.388 106.39 154.277 106.287L154.227 106.086C154.233 106.07 154.24 106.054 154.247 106.038C154.399 105.679 154.653 105.373 154.979 105.159C155.304 104.944 155.686 104.83 156.075 104.832C156.465 104.833 156.846 104.95 157.17 105.167C157.493 105.384 157.746 105.692 157.895 106.052C158.492 107.489 159.251 108.928 159.438 110.448C159.521 111.12 159.486 111.8 159.336 112.46C160.737 109.403 161.465 106.08 161.47 102.717C161.47 101.873 161.423 101.03 161.329 100.192C161.252 99.504 161.144 98.8213 161.006 98.1436C160.255 94.4661 158.642 91.0193 156.301 88.0862C155.167 87.4678 154.25 86.5167 153.674 85.3612C153.465 84.9459 153.318 84.5025 153.236 84.0449C153.364 84.0616 153.718 82.1143 153.622 81.9948C153.8 81.7244 154.119 81.59 154.313 81.3262C155.281 80.0139 156.615 80.243 157.311 82.0263C158.798 82.7768 158.812 84.0216 157.9 85.2187C157.319 85.9803 157.24 87.0109 156.73 87.8263C156.783 87.8934 156.837 87.9584 156.89 88.0255C157.848 89.2573 158.682 90.58 159.382 91.9746C159.212 90.4122 159.415 88.8317 159.975 87.3631C160.542 85.9944 161.606 84.8417 162.542 83.6585C163.667 82.2372 165.974 82.8575 166.172 84.6591C166.174 84.6766 166.176 84.694 166.178 84.7114C166.038 84.7899 165.902 84.8732 165.769 84.9613C165.602 85.0731 165.472 85.2329 165.397 85.4197C165.322 85.6064 165.305 85.8115 165.349 86.008C165.392 86.2046 165.494 86.3833 165.641 86.521C165.788 86.6586 165.973 86.7486 166.172 86.7793L166.192 86.7824C166.143 87.2837 166.055 87.7806 165.93 88.2686C167.132 92.9146 164.538 94.6068 160.834 94.6828C160.753 94.7248 160.673 94.7667 160.591 94.8065C161.295 96.7993 161.736 98.8752 161.904 100.982C161.999 102.225 161.993 103.473 161.887 104.715L161.893 104.671C162.161 103.29 162.898 102.044 163.979 101.143C165.584 99.8247 167.851 99.3391 169.583 98.2793C169.767 98.1612 169.981 98.0981 170.2 98.0976C170.418 98.0971 170.633 98.1591 170.817 98.2763C171.002 98.3936 171.149 98.5612 171.241 98.7594C171.334 98.9575 171.368 99.178 171.339 99.3948C171.337 99.4102 171.334 99.4257 171.332 99.4411C171.074 99.5462 170.823 99.6673 170.579 99.8037C170.44 99.8822 170.304 99.9655 170.171 100.054C170.004 100.165 169.874 100.325 169.799 100.512C169.724 100.699 169.707 100.904 169.751 101.1C169.794 101.297 169.896 101.476 170.043 101.613C170.19 101.751 170.375 101.841 170.574 101.872L170.594 101.875C170.609 101.877 170.621 101.879 170.636 101.881C170.195 102.934 169.576 103.903 168.806 104.746C168.055 108.802 164.829 109.187 161.377 108.006H161.375C160.997 109.651 160.448 111.253 159.738 112.785H153.89C153.869 112.72 153.85 112.653 153.831 112.588C154.373 112.622 154.916 112.59 155.449 112.492C155.016 111.959 154.582 111.423 154.148 110.89C154.138 110.88 154.129 110.87 154.121 110.859C153.9 110.586 153.678 110.316 153.458 110.043L153.458 110.043C153.446 109.208 153.542 108.374 153.743 107.564Z" fill="#F2F2F2"/>
<path d="M38.3197 112.654H47.7569C49.371 107.22 47.7655 94.3757 49.893 89.1261C53.9746 79.0605 59.189 68.44 68.9215 63.5252C73.0769 61.4266 77.6078 60.607 82.235 60.6516C88.627 60.7122 95.1987 62.4281 101.215 64.7021C103.676 65.6302 106.115 66.6508 108.544 67.6937C117.696 71.6261 126.748 75.9094 136.59 77.0672C149.043 78.5311 163.685 72.9593 167.087 60.9578C169.682 51.7693 165.007 42.23 160.104 34.0238C155.201 25.8176 149.72 17.0374 150.616 7.53635C150.619 7.50446 150.622 7.46936 150.628 7.43748C150.965 4.02488 153.003 1.57234 155.849 0H143.457C143.293 8.86317 148.421 16.6866 153.035 24.4111C157.938 32.6141 162.613 42.1566 160.017 51.3451C156.616 63.3434 128.451 49.2789 115.998 47.8118C112.481 47.4004 118.067 48.8643 114.714 47.8118C109.455 46.1629 108.872 61.2863 103.754 59.0665C100.567 57.6823 97.3775 56.3077 94.1462 55.0862C92.8081 54.5791 91.4412 54.1039 90.0582 53.6638C90.0549 53.6638 90.0549 53.6638 90.0517 53.6606C80.7653 50.72 70.6093 49.575 62.0289 53.8264C61.9711 53.8551 61.9102 53.8838 61.8524 53.9125C52.12 58.8241 46.9056 69.4446 42.8239 79.5102C39.4514 87.8312 39.9819 103.877 38.3197 112.654Z" fill="#F2F2F2"/>
<path d="M90.8245 112.376C114.763 112.376 134.169 92.97 134.169 69.0317C134.169 45.0933 114.763 25.6874 90.8245 25.6874C66.8861 25.6874 47.4802 45.0933 47.4802 69.0317C47.4802 92.97 66.8861 112.376 90.8245 112.376Z" fill="white"/>
<path d="M90.7008 112.654C47.816 113.639 46.8756 93.2652 46.8756 69.0314C46.8756 44.7982 66.5911 25.0828 90.8246 25.0828C115.058 25.0828 134.773 44.7982 134.773 69.0314C134.773 93.2652 114.934 112.654 90.7008 112.654ZM90.8245 26.2921C67.2577 26.2921 48.4818 45.4682 48.0849 69.0314C47.7158 90.9482 70.9986 118.297 90.8245 111.771C101.457 100.062 131.516 87.4502 133.564 69.0314C136.168 45.6092 114.391 26.2921 90.8245 26.2921Z" fill="#3F3D56"/>
<path d="M84.9114 91.5903C84.1629 91.5903 83.4247 91.416 82.7553 91.0812C82.0859 90.7464 81.5036 90.2603 81.0547 89.6614L69.2297 73.8945C68.8495 73.388 68.5728 72.8115 68.4154 72.198C68.258 71.5846 68.223 70.9461 68.3125 70.3191C68.4019 69.6921 68.614 69.0889 68.9367 68.5439C69.2593 67.9989 69.6861 67.5228 70.1928 67.1428C70.6995 66.7628 71.2761 66.4864 71.8896 66.3293C72.5032 66.1722 73.1417 66.1375 73.7686 66.2273C74.3956 66.317 74.9987 66.5294 75.5435 66.8523C76.0884 67.1752 76.5643 67.6022 76.944 68.1091L84.6803 78.4234L104.55 48.6192C105.26 47.556 106.362 46.818 107.616 46.5677C108.87 46.3173 110.171 46.5749 111.235 47.284C112.299 47.9931 113.037 49.0956 113.288 50.349C113.539 51.6024 113.282 52.9043 112.574 53.9682L88.9236 89.4432C88.4958 90.0848 87.9204 90.6144 87.2456 90.9877C86.5709 91.3611 85.8165 91.5672 85.0456 91.5888C85.0009 91.5895 84.9562 91.5903 84.9114 91.5903Z" fill="#F2F2F2"/>
<path d="M1.3818e-06 112.688C-0.000120887 112.729 0.00787229 112.769 0.0235187 112.807C0.0391652 112.845 0.0621576 112.88 0.0911727 112.909C0.120188 112.938 0.154651 112.961 0.192584 112.976C0.230516 112.992 0.271172 113 0.312204 113H187.96C188.042 113 188.122 112.967 188.18 112.909C188.239 112.85 188.272 112.771 188.272 112.688C188.272 112.605 188.239 112.526 188.18 112.467C188.122 112.409 188.042 112.376 187.96 112.376H0.312204C0.271172 112.375 0.23052 112.383 0.192588 112.399C0.154655 112.415 0.120191 112.438 0.0911767 112.467C0.0621619 112.496 0.0391697 112.53 0.0235227 112.568C0.0078758 112.606 -0.000119495 112.647 1.3818e-06 112.688Z" fill="#CCCCCC"/>
<path d="M118.503 109.628H115.965L114.758 99.8379L118.504 99.8382L118.503 109.628Z" fill="#FFB6B6"/>
<path d="M118.593 112.275L110.788 112.275V112.176C110.788 111.371 111.108 110.598 111.678 110.028C112.248 109.459 113.02 109.138 113.826 109.138L115.252 108.057L117.912 109.139L118.593 109.139L118.593 112.275Z" fill="#2F2E41"/>
<path d="M107.469 97.4949L105.125 98.4671L100.259 89.8869L103.72 88.4521L107.469 97.4949Z" fill="#FFB6B6"/>
<path d="M108.566 99.9064L101.357 102.896L101.319 102.805C101.01 102.06 101.01 101.224 101.318 100.48C101.626 99.7353 102.217 99.1436 102.961 98.835L103.864 97.2897L106.735 97.27L107.365 97.009L108.566 99.9064Z" fill="#2F2E41"/>
<path d="M121.405 53.9391L103.394 55.8209L100.984 63.9357L92.6404 77.3447C92.6404 77.3447 98.4626 87.1441 97.9159 87.0373C97.3693 86.9306 98.462 89.6018 99.2273 89.4467C99.9927 89.2916 100.789 91.0333 100.259 91.343C99.7303 91.6527 101.853 94.2711 101.853 94.2711L105.098 91.359C105.788 86.1535 104.954 81.5207 101.983 77.6907L111.279 67.6556L113.041 66.9242L114.44 104.162L119.616 104.247C121.043 96.9015 121.761 90.2901 120.645 85.5737C120.645 85.5737 120.805 71.4052 121.417 71.5601C122.029 71.715 121.51 69.8693 121.51 69.8693C121.51 69.8693 120.974 68.2972 121.633 67.6451C122.291 66.993 121.88 63.1573 121.88 63.1573C122.968 59.5275 122.641 56.5303 121.405 53.9391Z" fill="#2F2E41"/>
<path d="M107.556 23.993L112.536 22.7027L114.86 19.4969L120.38 20.1755L121.555 24.5482L125.485 26.8293C125.485 26.8293 123.313 49.8026 123.829 51.064C124.346 52.3255 126.198 52.2213 124.616 53.8474C123.034 55.4735 122.825 54.8186 123.192 56.5889C123.559 58.3592 126.235 60.2328 123.192 60.2142C120.148 60.1956 101.785 59.9333 102.309 57.8346C102.834 55.7359 102.826 56.2688 103.617 54.953C104.408 53.6372 104.941 54.3725 104.674 52.4308C104.408 50.4891 104.671 49.1774 104.671 48.1281C104.671 47.0787 105.55 37.5431 105.55 37.5431L107.556 23.993Z" fill="#E6E6E6"/>
<path d="M117.606 18.9043C120.837 18.9043 123.455 16.2854 123.455 13.0548C123.455 9.82423 120.837 7.20532 117.606 7.20532C114.375 7.20532 111.756 9.82423 111.756 13.0548C111.756 16.2854 114.375 18.9043 117.606 18.9043Z" fill="#FFB6B6"/>
<path d="M111.477 9.51477C111.99 9.92984 111.873 11.9484 112.445 11.6194C113.017 11.2904 113.137 10.7012 113.796 10.695C114.333 10.7247 114.84 10.954 115.217 11.3381C115.287 11.4014 115.353 11.4679 115.418 11.5336C115.478 11.5128 115.536 11.494 115.598 11.4786C116.06 11.3657 116.548 11.4344 116.961 11.6705C116.579 11.6977 116.216 11.8442 115.923 12.0892C116.048 12.2301 116.176 12.3719 116.31 12.5029C117.43 13.6008 119.727 12.4316 121.272 12.1678C119.986 13.5724 120.239 14.3565 120.559 16.2338L120.56 16.3364C120.626 15.9034 122.013 15.925 121.784 16.4995C121.497 17.067 121.138 17.595 120.716 18.0705C122.605 16.7617 124.13 14.9575 124.467 12.7782C124.536 12.3199 124.671 11.8524 124.541 11.4056C124.485 11.1797 124.357 10.9786 124.175 10.8336C123.993 10.6886 123.768 10.6079 123.536 10.6042C123.746 9.93566 123.771 9.22261 123.609 8.54082C123.447 7.85903 123.102 7.234 122.613 6.73217C122.124 6.23035 121.508 5.87048 120.83 5.69084C120.153 5.5112 119.439 5.51849 118.766 5.71195C118.151 5.93034 117.552 6.18904 116.972 6.48637C116.386 6.78485 115.723 6.89715 115.071 6.80823C114.665 6.7244 114.254 6.51428 113.857 6.63325C113.396 6.77148 113.198 7.25826 113.013 7.72817C113.36 7.85482 113.661 8.08198 113.878 8.38063C113.519 8.24833 113.128 8.23244 112.76 8.33522C112.753 8.33641 112.747 8.33822 112.74 8.34062C112.323 9.08843 112.299 9.2718 111.477 9.51477Z" fill="#2F2E41"/>
<path d="M113.406 21.1357C110.409 20.8945 107.674 23.1859 106.427 25.9207C105.179 28.6554 105.098 31.7579 105.037 34.763L104.849 44.1045C104.821 45.4868 104.793 46.8694 104.724 48.2502C104.689 49.5939 104.52 50.9308 104.22 52.241C103.609 54.6453 102.265 56.7878 100.941 58.8855C104.331 59.9102 107.779 60.7336 111.266 61.3513C113.007 55.7186 114.769 49.924 114.341 44.0437C114.114 40.9321 113.277 37.8941 112.959 34.7905C112.508 30.395 113.106 25.9671 113.702 21.5889" fill="#3F3D56"/>
<path d="M120.678 21.6611C123.646 22.1383 125.759 25.0137 126.321 27.9665C126.884 30.9192 126.226 33.9523 125.571 36.8859C124.893 39.9255 124.214 42.9652 123.536 46.0048C123.235 47.3542 122.933 48.7038 122.672 50.0616C122.419 51.3805 123.481 53.0722 123.493 54.4153C123.515 56.8958 123.034 58.9388 123.822 61.291C120.285 61.4814 116.741 61.4625 113.207 61.2345C112.853 55.3493 112.518 49.3021 114.33 43.6918C115.289 40.7229 116.823 37.9706 117.869 35.0313C119.351 30.8685 119.822 26.4255 120.283 22.031" fill="#3F3D56"/>
<path d="M122.657 64.0683C122.436 63.6842 122.374 63.2293 122.484 62.8003C122.594 62.3713 122.867 62.0022 123.245 61.7714C123.323 61.7257 123.404 61.6865 123.488 61.6542L123.11 48.7693L127.209 47.7258L125.646 62.7373C125.753 63.0961 125.738 63.4802 125.604 63.8297C125.469 64.1792 125.223 64.4744 124.903 64.6693C124.72 64.7784 124.518 64.8504 124.307 64.8812C124.096 64.912 123.881 64.901 123.675 64.8488C123.468 64.7965 123.274 64.7041 123.103 64.5769C122.932 64.4496 122.788 64.2899 122.679 64.1069C122.671 64.0941 122.664 64.0813 122.657 64.0683Z" fill="#FFB6B6"/>
<path d="M122.357 26.8086C122.357 26.8086 125.219 24.3888 127.627 29.2272C130.034 34.0656 128.689 45.119 128.35 45.7089C128.011 46.2988 127.804 45.477 127.99 47.0495C128.141 48.3284 127.243 48.1685 127.565 48.4414C128.414 49.161 126.037 49.243 127.258 49.877C128.479 50.5111 123.014 50.6299 123.014 50.6299C123.014 50.6299 122.353 50.1578 122.812 48.3775C123.069 47.3776 123.715 47.0119 123.026 46.5492C122.338 46.0865 123.738 44.6561 123.739 44.3422C123.74 44.0284 121.556 37.1638 121.556 37.1638L122.357 26.8086Z" fill="#3F3D56"/>
<path d="M98.6788 86.4138C97.9303 86.4138 97.1921 86.2395 96.5226 85.9047C95.8532 85.5699 95.271 85.0837 94.822 84.4848L82.997 68.7179C82.6168 68.2114 82.3401 67.635 82.1827 67.0215C82.0253 66.408 81.9904 65.7696 82.0798 65.1426C82.1693 64.5156 82.3814 63.9124 82.704 63.3674C83.0266 62.8224 83.4535 62.3463 83.9602 61.9663C84.4668 61.5863 85.0434 61.3099 85.657 61.1528C86.2705 60.9957 86.909 60.961 87.536 61.0508C88.1629 61.1405 88.766 61.3529 89.3109 61.6758C89.8557 61.9986 90.3316 62.4257 90.7114 62.9326L98.4477 73.2469L118.317 43.4427C118.669 42.9159 119.12 42.4634 119.646 42.111C120.172 41.7587 120.763 41.5135 121.384 41.3893C122.004 41.2651 122.644 41.2644 123.265 41.3873C123.886 41.5102 124.477 41.7542 125.004 42.1054C125.53 42.4567 125.983 42.9082 126.335 43.4343C126.688 43.9604 126.933 44.5507 127.057 45.1716C127.181 45.7925 127.182 46.4318 127.059 47.0529C126.936 47.674 126.692 48.2649 126.341 48.7917L102.691 84.2667C102.263 84.9082 101.688 85.4379 101.013 85.8112C100.338 86.1845 99.5838 86.3906 98.813 86.4122C98.7682 86.413 98.7235 86.4138 98.6788 86.4138Z" fill="#21D19F"/>
<path d="M107.693 61.8302C107.934 61.4589 108.021 61.0081 107.935 60.5737C107.849 60.1393 107.597 59.7556 107.232 59.5043C107.157 59.4543 107.078 59.4107 106.996 59.3738L108.086 46.5295L104.051 45.2611L104.782 60.336C104.655 60.6884 104.649 61.0727 104.764 61.4291C104.878 61.7855 105.108 62.0938 105.416 62.3061C105.593 62.4251 105.791 62.5083 106 62.5507C106.209 62.5931 106.424 62.5939 106.633 62.5532C106.842 62.5125 107.041 62.431 107.219 62.3133C107.397 62.1956 107.549 62.0441 107.668 61.8675C107.677 61.8552 107.685 61.8427 107.693 61.8302Z" fill="#FFB6B6"/>
<path d="M110.054 24.6705C110.054 24.6705 107.331 22.0962 104.66 26.7942C101.988 31.4921 102.721 42.603 103.026 43.2107C103.332 43.8185 103.584 43.0094 103.312 44.5692C103.091 45.8378 103.996 45.7277 103.659 45.9824C102.772 46.654 105.141 46.8672 103.887 47.4329C102.632 47.9985 108.083 48.4191 108.083 48.4191C108.083 48.4191 108.769 47.9843 108.409 46.1814C108.207 45.1688 107.582 44.7678 108.295 44.3439C109.008 43.92 107.69 42.4144 107.706 42.101C107.723 41.7875 110.282 35.0542 110.282 35.0542L110.054 24.6705Z" fill="#3F3D56"/>
</g>
<defs>
<clipPath id="clip0_1383_1608">
<rect width="188.272" height="113" fill="white"/>
</clipPath>
</defs>
</svg>
